<svg width="20" height="21" viewBox="0 0 20 21" fill="none" xmlns="http://www.w3.org/2000/svg">
<path d="M19.2336 4.58383C18.4662 3.52786 17.1223 2.57473 15.4494 1.90012C13.7855 1.22918 11.8537 0.858168 10.0096 0.855512C8.16531 0.850902 6.23105 1.21809 4.5648 1.88383C2.88902 2.5534 1.54187 3.50239 0.771674 4.55586C0.0319082 5.5677 -0.181295 6.65829 0.155072 7.70973C0.373275 8.39184 1.0098 8.85079 1.73937 8.85184L4.23745 8.85418C4.23828 8.85418 4.2391 8.85418 4.23995 8.85418C4.73808 8.85414 5.20609 8.6361 5.52413 8.25567C5.83882 7.8793 5.96917 7.38743 5.88179 6.9061C5.87925 6.892 5.87613 6.87793 5.87257 6.86399L5.74113 6.35297C6.46902 6.00567 8.11824 5.33465 10.0019 5.34532C11.8841 5.35496 13.5322 6.02559 14.261 6.37305L14.1275 6.88118C14.1237 6.89555 14.1205 6.91004 14.1177 6.92461C14.029 7.40567 14.1579 7.89789 14.4715 8.27516C14.789 8.65719 15.2574 8.87664 15.7568 8.87739L18.2549 8.87973C18.2557 8.87973 18.2566 8.87973 18.2574 8.87973C18.9855 8.87969 19.6223 8.42286 19.8421 7.74219C20.1816 6.69098 19.9712 5.59883 19.2336 4.58383ZM18.7062 7.37524C18.6471 7.55836 18.4626 7.6861 18.2569 7.6861C18.2568 7.6861 18.2565 7.6861 18.2562 7.6861L15.7582 7.68375C15.6143 7.68356 15.4798 7.62102 15.3894 7.51215C15.3402 7.45297 15.2634 7.32989 15.2885 7.15871L15.5371 6.21328C15.6052 5.95418 15.4923 5.68153 15.261 5.54629C15.1646 5.48996 12.8677 4.16629 10.008 4.15157C9.99206 4.15149 9.97663 4.15145 9.96078 4.15145C7.11949 4.15145 4.83886 5.46934 4.74265 5.52575C4.51285 5.66051 4.40019 5.93121 4.46656 6.18926L4.71015 7.13621C4.73503 7.30774 4.65781 7.43082 4.60839 7.48996C4.51781 7.59832 4.38351 7.66043 4.2396 7.66043C4.23937 7.66043 4.23913 7.66043 4.2389 7.66043L1.74078 7.65809C1.53519 7.65778 1.35062 7.52942 1.29195 7.3459C1.07351 6.66305 1.22265 5.96129 1.73523 5.2602C3.09683 3.39786 6.56558 2.04899 9.98921 2.04899C9.99531 2.04899 10.0018 2.04899 10.0079 2.04899C13.435 2.05391 16.9089 3.41504 18.2682 5.28543C18.7794 5.98922 18.9269 6.69231 18.7062 7.37524Z" fill="#2E3D80"/>
<path d="M15.6482 11.43L13.7853 9.47393C13.6726 9.35565 13.5165 9.28874 13.3532 9.28874H12.1492V8.47534C12.1492 8.14573 11.8821 7.87854 11.5524 7.87854C11.2229 7.87854 10.9557 8.14573 10.9557 8.47534V9.28874H9.04464V8.47534C9.04464 8.14573 8.77745 7.87854 8.44784 7.87854C8.11823 7.87854 7.85104 8.14573 7.85104 8.47534V9.28874H6.64718C6.48385 9.28874 6.32764 9.35569 6.21503 9.47393L4.35214 11.43C2.89151 12.9637 2.0871 14.9747 2.0871 17.0926V19.5478C2.0871 19.8774 2.35428 20.1446 2.68389 20.1446H17.3164C17.646 20.1446 17.9132 19.8774 17.9132 19.5478V17.0926C17.9133 14.9746 17.1089 12.9637 15.6482 11.43ZM3.28069 18.951V17.0926C3.28069 15.2825 3.96815 13.5639 5.21651 12.2531L6.903 10.4823H13.0974L14.7839 12.2531C16.0321 13.5638 16.7196 15.2825 16.7196 17.0926V18.951H3.28069Z" fill="#2E3D80"/>
<path d="M10.0002 11.7162C8.2779 11.7162 6.87677 13.1174 6.87677 14.8396C6.87677 16.5619 8.27794 17.963 10.0002 17.963C11.7224 17.963 13.1236 16.5619 13.1236 14.8396C13.1236 13.1173 11.7224 11.7162 10.0002 11.7162ZM10.0002 16.7694C8.93603 16.7694 8.07036 15.9037 8.07036 14.8395C8.07036 13.7754 8.93607 12.9097 10.0002 12.9097C11.0643 12.9097 11.93 13.7754 11.93 14.8395C11.93 15.9037 11.0643 16.7694 10.0002 16.7694Z" fill="#2E3D80"/>
</svg>
